<svg width="80" height="80" viewBox="0 0 80 80" fill="none" xmlns="http://www.w3.org/2000/svg">
<path d="M36.6667 20.0001C40.3486 20.0001 43.3333 17.0153 43.3333 13.3334C43.3333 9.65152 40.3486 6.66675 36.6667 6.66675C32.9848 6.66675 30 9.65152 30 13.3334C30 17.0153 32.9848 20.0001 36.6667 20.0001Z" stroke="#0E956B" stroke-width="2" stroke-linecap="round" stroke-linejoin="round"/>
<path d="M60 33.3333C63.6819 33.3333 66.6666 30.3486 66.6666 26.6667C66.6666 22.9848 63.6819 20 60 20C56.3181 20 53.3333 22.9848 53.3333 26.6667C53.3333 30.3486 56.3181 33.3333 60 33.3333Z" stroke="#0E956B" stroke-width="2" stroke-linecap="round" stroke-linejoin="round"/>
<path d="M66.6667 60.0001C70.3486 60.0001 73.3333 57.0153 73.3333 53.3334C73.3333 49.6515 70.3486 46.6667 66.6667 46.6667C62.9848 46.6667 60 49.6515 60 53.3334C60 57.0153 62.9848 60.0001 66.6667 60.0001Z" stroke="#0E956B" stroke-width="2" stroke-linecap="round" stroke-linejoin="round"/>
<path d="M30 33.3333C32.1887 33.3333 34.3559 33.7643 36.378 34.6019C38.4001 35.4395 40.2374 36.6672 41.7851 38.2148C43.3327 39.7624 44.5604 41.5998 45.398 43.6219C46.2355 45.644 46.6666 47.8112 46.6666 49.9999V61.6666C46.6657 64.4548 45.6663 67.1505 43.8494 69.2654C42.0324 71.3803 39.5182 72.7746 36.7619 73.1956C34.0057 73.6167 31.1898 73.0368 28.8243 71.5609C26.4588 70.085 24.7 67.8107 23.8666 65.1499C22.4444 60.561 19.4444 57.5555 14.8666 56.1333C12.2073 55.3003 9.93386 53.5429 8.45785 51.1791C6.98183 48.8154 6.40069 46.0013 6.8196 43.2462C7.23851 40.4911 8.62978 37.9769 10.7417 36.1586C12.8536 34.3404 15.5465 33.3381 18.3333 33.3333H30Z" stroke="#0E956B" stroke-width="2" stroke-linecap="round" stroke-linejoin="round"/>
</svg>
